<?xml version="1.0" encoding="UTF-8"?>
<svg width="800px" height="300px" viewBox="0 0 800 300" version="1.1" xmlns="http://www.w3.org/2000/svg" xmlns:xlink="http://www.w3.org/1999/xlink">
    <!-- Generator: Sketch 51.3 (57544) - http://www.bohemiancoding.com/sketch -->
    <title>row-logo-white</title>
    <desc>Created with Sketch.</desc>
    <defs></defs>
    <g id="row-logo-white" stroke="none" stroke-width="1" fill="none" fill-rule="evenodd">
        <rect fill="#FFFFFF" x="0" y="0" width="800" height="300"></rect>
        <path d="M139.8,116 C147.333371,116 153.933305,117.433319 159.6,120.3 C165.266695,123.166681 169.666651,127.31664 172.8,132.75 C175.933349,138.18336 177.5,144.666629 177.5,152.2 C177.5,159.53337 175.900016,166.033305 172.7,171.7 C169.499984,177.366695 165.033362,181.766651 159.3,184.9 C153.566638,188.033349 147.03337,189.6 139.7,189.6 C132.166629,189.6 125.566695,188.166681 119.9,185.3 C114.233305,182.433319 109.833349,178.283361 106.7,172.85 C103.566651,167.416639 102,160.933371 102,153.4 C102,146.06663 103.599984,139.566695 106.8,133.9 C110.000016,128.233305 114.466638,123.833349 120.2,120.7 C125.933362,117.566651 132.46663,116 139.8,116 Z M139.4,117.8 C136.133317,117.8 133.250013,119.283318 130.75,122.25 C128.249988,125.216682 126.33334,129.36664 125,134.7 C123.66666,140.03336 123,146.133299 123,153 C123,159.933368 123.766659,166.033307 125.3,171.3 C126.833341,176.566693 128.899987,180.633319 131.5,183.5 C134.100013,186.366681 136.966651,187.8 140.1,187.8 C143.366683,187.8 146.249988,186.316682 148.75,183.35 C151.250012,180.383318 153.16666,176.23336 154.5,170.9 C155.83334,165.56664 156.5,159.466701 156.5,152.6 C156.5,145.666632 155.733341,139.566693 154.2,134.3 C152.666659,129.033307 150.600013,124.966681 148,122.1 C145.399987,119.233319 142.533349,117.8 139.4,117.8 Z M222.7,134.9 C228.03336,134.9 231.799989,136.23332 234,138.9 C235.000005,140.100006 235.733331,141.716656 236.2,143.75 C236.666669,145.783344 236.9,148.46665 236.9,151.8 L236.9,178.9 C236.9,181.633347 237.316663,183.516661 238.15,184.55 C238.983338,185.583339 240.433323,186.1 242.5,186.1 L242.5,188.2 C235.299964,187.933332 230.633344,187.8 228.5,187.8 C226.233322,187.8 221.500036,187.933332 214.3,188.2 L214.3,186.1 C216.033342,186.1 217.23333,185.583339 217.9,184.55 C218.56667,183.516661 218.9,181.633347 218.9,178.9 L218.9,146.4 C218.9,144.266656 218.516671,142.683338 217.75,141.65 C216.983329,140.616662 215.733342,140.1 214,140.1 C212.066657,140.1 210.383341,140.783326 208.95,142.15 C207.51666,143.516673 206.8,145.233323 206.8,147.3 L206.8,178.9 C206.8,181.633347 207.13333,183.516661 207.8,184.55 C208.46667,185.583339 209.666658,186.1 211.4,186.1 L211.4,188.2 C204.7333,187.933332 200.333344,187.8 198.2,187.8 C195.933322,187.8 190.933372,187.933332 183.2,188.2 L183.2,186.1 C185.266677,186.1 186.716663,185.583339 187.55,184.55 C188.383338,183.516661 188.8,181.633347 188.8,178.9 L188.8,147.2 C188.8,144.133318 188.383338,141.900007 187.55,140.5 C186.716663,139.099993 185.266677,138.4 183.2,138.4 L183.2,136.3 C185.333344,136.500001 187.39999,136.6 189.4,136.6 C196.333368,136.6 202.13331,136.133338 206.8,135.2 L206.8,142.4 C209.800015,137.399975 215.099962,134.9 222.7,134.9 Z M276.9,178.7 C281.766691,178.7 285.799984,176.466689 289,172 L290.7,172.6 C289.233326,177.26669 286.750018,181.26665 283.25,184.6 C279.749982,187.93335 275.266694,189.6 269.8,189.6 C262.799965,189.6 257.200021,187.433355 253,183.1 C248.799979,178.766645 246.7,171.833381 246.7,162.3 C246.7,153.166621 249.049976,146.316689 253.75,141.75 C258.450023,137.183311 264.666628,134.9 272.4,134.9 C285.000063,134.9 291.3,142.366592 291.3,157.3 L265.5,157.3 C265.433333,158.100004 265.4,159.299992 265.4,160.9 C265.4,167.300032 266.516656,171.866653 268.75,174.6 C270.983344,177.333347 273.699984,178.7 276.9,178.7 Z M271.7,137.2 C267.966648,137.2 265.76667,143.266606 265.1,155.4 L276.7,155.4 C276.766667,150.06664 276.383337,145.700017 275.55,142.3 C274.716662,138.899983 273.433342,137.2 271.7,137.2 Z M324.1,159.6 L324.1,176.6 C324.1,179.400014 324.38333,181.433327 324.95,182.7 C325.51667,183.966673 326.549993,184.816665 328.05,185.25 C329.550007,185.683335 331.933317,185.9 335.2,185.9 L335.2,188.2 C326.199955,187.999999 319.333357,187.9 314.6,187.9 C311.466651,187.9 307.100028,187.966666 301.5,188.1 L296.7,188.2 L296.7,186.2 C298.833344,186.066666 300.383328,185.800002 301.35,185.4 C302.316671,184.999998 302.966665,184.233339 303.3,183.1 C303.633335,181.966661 303.8,180.133346 303.8,177.6 L303.8,128 C303.8,125.466654 303.616669,123.633339 303.25,122.5 C302.883332,121.366661 302.233338,120.600002 301.3,120.2 C300.366662,119.799998 298.833344,119.533334 296.7,119.4 L296.7,117.4 C300.500019,117.600001 306.233295,117.7 313.9,117.7 L325.4,117.6 C326.73334,117.533333 328.266658,117.5 330,117.5 C339.866716,117.5 347.349975,119.283316 352.45,122.85 C357.550025,126.416685 360.1,131.19997 360.1,137.2 C360.1,140.866685 359.10001,144.383316 357.1,147.75 C355.09999,151.116684 351.700024,153.933322 346.9,156.2 C342.099976,158.466678 335.733373,159.6 327.8,159.6 L324.1,159.6 Z M329.5,119.4 C327.966659,119.4 326.81667,119.633331 326.05,120.1 C325.28333,120.566669 324.766668,121.399994 324.5,122.6 C324.233332,123.800006 324.1,125.599988 324.1,128 L324.1,157.6 L326.8,157.6 C331.46669,157.6 334.683325,155.866684 336.45,152.4 C338.216675,148.933316 339.1,144.233363 339.1,138.3 C339.1,131.833301 338.366674,127.066682 336.9,124 C335.433326,120.933318 332.966684,119.4 329.5,119.4 Z M400.3,134.9 C403.566683,134.9 405.91666,135.89999 407.35,137.9 C408.783341,139.90001 409.5,142.266653 409.5,145 C409.5,148.000015 408.650009,150.383325 406.95,152.15 C405.249991,153.916675 403.033347,154.8 400.3,154.8 C397.433319,154.8 395.233341,154.150007 393.7,152.85 C392.166659,151.549993 391.4,149.800011 391.4,147.6 C391.4,143.666647 393.099983,140.566678 396.5,138.3 C395.299994,138.3 394.233338,138.533331 393.3,139 C391.633325,139.733337 390.233339,140.916658 389.1,142.55 C387.966661,144.183341 387.4,145.966657 387.4,147.9 L387.4,177.9 C387.4,181.033349 388.049994,183.183328 389.35,184.35 C390.650007,185.516672 392.866651,186.1 396,186.1 L396,188.2 C395.133329,188.2 394.400003,188.166667 393.8,188.1 C386.799965,187.899999 382.133345,187.8 379.8,187.8 C377.733323,187.8 373.100036,187.899999 365.9,188.1 C365.366664,188.166667 364.666671,188.2 363.8,188.2 L363.8,186.1 C365.866677,186.1 367.316663,185.583339 368.15,184.55 C368.983337,183.516661 369.4,181.633347 369.4,178.9 L369.4,147.2 C369.4,144.133318 368.983337,141.900007 368.15,140.5 C367.316663,139.099993 365.866677,138.4 363.8,138.4 L363.8,136.3 C365.933344,136.500001 367.99999,136.6 370,136.6 C376.933368,136.6 382.73331,136.133338 387.4,135.2 L387.4,142.4 C389.933346,137.399975 394.233303,134.9 400.3,134.9 Z M443.1,178.7 C447.966691,178.7 451.999984,176.466689 455.2,172 L456.9,172.6 C455.433326,177.26669 452.950018,181.26665 449.45,184.6 C445.949983,187.93335 441.466694,189.6 436,189.6 C428.999965,189.6 423.400021,187.433355 419.2,183.1 C414.999979,178.766645 412.9,171.833381 412.9,162.3 C412.9,153.166621 415.249977,146.316689 419.95,141.75 C424.650023,137.183311 430.866628,134.9 438.6,134.9 C451.200063,134.9 457.5,142.366592 457.5,157.3 L431.7,157.3 C431.633333,158.100004 431.6,159.299992 431.6,160.9 C431.6,167.300032 432.716656,171.866653 434.95,174.6 C437.183344,177.333347 439.899984,178.7 443.1,178.7 Z M437.9,137.2 C434.166648,137.2 431.96667,143.266606 431.3,155.4 L442.9,155.4 C442.966667,150.06664 442.583337,145.700017 441.75,142.3 C440.916663,138.899983 439.633342,137.2 437.9,137.2 Z M483.2,134.9 C485.800013,134.9 488.249988,135.183331 490.55,135.75 C492.850011,136.316669 494.599994,136.93333 495.8,137.6 C496.533337,138.000002 497.133331,138.2 497.6,138.2 C499.000007,138.2 499.833332,137.133344 500.1,135 L502.1,135 C501.833332,138.466684 501.7,144.466624 501.7,153 L499.7,153 C499.166664,148.599978 497.916677,144.883349 495.95,141.85 C493.983324,138.816651 491.133352,137.3 487.4,137.3 C485.733325,137.3 484.333339,137.799995 483.2,138.8 C482.066661,139.800005 481.5,141.166658 481.5,142.9 C481.5,145.100011 482.233326,147.049991 483.7,148.75 C485.166674,150.450009 487.466651,152.533321 490.6,155 C490.733334,155.066667 491.699991,155.833326 493.5,157.3 C497.233352,160.366682 499.966658,163.083322 501.7,165.45 C503.433342,167.816678 504.3,170.733316 504.3,174.2 C504.3,177.133348 503.400009,179.783321 501.6,182.15 C499.799991,184.516679 497.350016,186.349993 494.25,187.65 C491.149985,188.950006 487.766685,189.6 484.1,189.6 C479.899979,189.6 476.46668,188.766675 473.8,187.1 C472.666661,186.499997 471.733337,186.066668 471,185.8 C470.266663,185.533332 469.533337,185.4 468.8,185.4 C467.533327,185.4 466.600003,186.566655 466,188.9 L464,188.9 C464.266668,185.099981 464.4,178.433381 464.4,168.9 L466.4,168.9 C467.000003,174.366694 468.466655,178.76665 470.8,182.1 C473.133345,185.43335 476.066649,187.1 479.6,187.1 C481.266675,187.1 482.649995,186.633338 483.75,185.7 C484.850006,184.766662 485.4,183.400009 485.4,181.6 C485.4,179.733324 485.016671,178.066674 484.25,176.6 C483.48333,175.133326 482.550006,173.816672 481.45,172.65 C480.349995,171.483327 478.566679,169.800011 476.1,167.6 C473.299986,164.999987 471.166674,162.933341 469.7,161.4 C468.233326,159.866659 466.983339,158.083344 465.95,156.05 C464.916662,154.016657 464.4,151.766679 464.4,149.3 C464.4,146.433319 465.266658,143.900011 467,141.7 C468.733342,139.499989 471.033319,137.816672 473.9,136.65 C476.766681,135.483327 479.86665,134.9 483.2,134.9 Z M530.4,134.9 C533.000013,134.9 535.449989,135.183331 537.75,135.75 C540.050011,136.316669 541.799994,136.93333 543,137.6 C543.733337,138.000002 544.333331,138.2 544.8,138.2 C546.200007,138.2 547.033332,137.133344 547.3,135 L549.3,135 C549.033332,138.466684 548.9,144.466624 548.9,153 L546.9,153 C546.366664,148.599978 545.116677,144.883349 543.15,141.85 C541.183324,138.816651 538.333352,137.3 534.6,137.3 C532.933325,137.3 531.533339,137.799995 530.4,138.8 C529.266661,139.800005 528.7,141.166658 528.7,142.9 C528.7,145.100011 529.433326,147.049991 530.9,148.75 C532.366674,150.450009 534.666651,152.533321 537.8,155 C537.933334,155.066667 538.899991,155.833326 540.7,157.3 C544.433352,160.366682 547.166658,163.083322 548.9,165.45 C550.633342,167.816678 551.5,170.733316 551.5,174.2 C551.5,177.133348 550.600009,179.783321 548.8,182.15 C546.999991,184.516679 544.550015,186.349993 541.45,187.65 C538.349985,188.950006 534.966685,189.6 531.3,189.6 C527.099979,189.6 523.66668,188.766675 521,187.1 C519.866661,186.499997 518.933337,186.066668 518.2,185.8 C517.466663,185.533332 516.733337,185.4 516,185.4 C514.733327,185.4 513.800003,186.566655 513.2,188.9 L511.2,188.9 C511.466668,185.099981 511.6,178.433381 511.6,168.9 L513.6,168.9 C514.200003,174.366694 515.666655,178.76665 518,182.1 C520.333345,185.43335 523.266649,187.1 526.8,187.1 C528.466675,187.1 529.849994,186.633338 530.95,185.7 C532.050005,184.766662 532.6,183.400009 532.6,181.6 C532.6,179.733324 532.21667,178.066674 531.45,176.6 C530.68333,175.133326 529.750006,173.816672 528.65,172.65 C527.549995,171.483327 525.766679,169.800011 523.3,167.6 C520.499986,164.999987 518.366674,162.933341 516.9,161.4 C515.433326,159.866659 514.183338,158.083344 513.15,156.05 C512.116662,154.016657 511.6,151.766679 511.6,149.3 C511.6,146.433319 512.466658,143.900011 514.2,141.7 C515.933342,139.499989 518.233319,137.816672 521.1,136.65 C523.966681,135.483327 527.06665,134.9 530.4,134.9 Z M625.4,180.1 C626.333338,181.633341 627.233329,182.849995 628.1,183.75 C628.966671,184.650005 630.099993,185.466663 631.5,186.2 L631.5,188.2 C625.899972,187.999999 619.900032,187.9 613.5,187.9 C608.566642,187.9 603.800023,187.999999 599.2,188.2 L599.2,186.2 C601.333344,186.066666 602.816663,185.883334 603.65,185.65 C604.483337,185.416666 604.9,184.96667 604.9,184.3 C604.9,183.63333 604.56667,182.766672 603.9,181.7 L589.4,157.2 C588.466662,155.599992 587.683336,154.500003 587.05,153.9 C586.416664,153.299997 585.633338,152.933334 584.7,152.8 L584.7,177.6 C584.7,180.133346 584.883331,181.966661 585.25,183.1 C585.616668,184.233339 586.266662,184.999998 587.2,185.4 C588.133338,185.800002 589.666656,186.066666 591.8,186.2 L591.8,188.2 C587.933314,187.999999 582.366703,187.9 575.1,187.9 C567.033293,187.9 561.100019,187.999999 557.3,188.2 L557.3,186.2 C559.433344,186.066666 560.983329,185.800002 561.95,185.4 C562.916672,184.999998 563.566665,184.233339 563.9,183.1 C564.233335,181.966661 564.4,180.133346 564.4,177.6 L564.4,128 C564.4,125.466654 564.216669,123.633339 563.85,122.5 C563.483331,121.366661 562.833338,120.600002 561.9,120.2 C560.966662,119.799998 559.433344,119.533334 557.3,119.4 L557.3,117.4 C561.100019,117.600001 567.033293,117.7 575.1,117.7 C582.300036,117.7 587.866647,117.600001 591.8,117.4 L591.8,119.4 C589.666656,119.533334 588.116672,119.799998 587.15,120.2 C586.183329,120.600002 585.533335,121.366661 585.2,122.5 C584.866665,123.633339 584.7,125.466654 584.7,128 L584.7,150.6 C587.36668,150.399999 589.966654,149.400009 592.5,147.6 C595.033346,145.799991 598.133315,142.833354 601.8,138.7 L605.2,134.9 C608.133348,131.56665 609.6,128.56668 609.6,125.9 C609.6,123.966657 608.833341,122.416673 607.3,121.25 C605.766659,120.083327 603.800012,119.433334 601.4,119.3 L601.4,117.4 C607.000028,117.600001 612.633305,117.7 618.3,117.7 C622.366687,117.7 625.73332,117.600001 628.4,117.4 L628.4,119.3 C622.599971,120.833341 617.133359,124.499971 612,130.3 L602.2,141.4 L625.4,180.1 Z M646,110 C649.466684,110 652.14999,110.733326 654.05,112.2 C655.950009,113.666674 656.9,115.799986 656.9,118.6 C656.9,121.400014 655.950009,123.533326 654.05,125 C652.14999,126.466674 649.466684,127.2 646,127.2 C642.466649,127.2 639.766676,126.466674 637.9,125 C636.033324,123.533326 635.1,121.400014 635.1,118.6 C635.1,115.799986 636.033324,113.666674 637.9,112.2 C639.766676,110.733326 642.466649,110 646,110 Z M655.6,178.9 C655.6,181.633347 656.016663,183.516661 656.85,184.55 C657.683337,185.583339 659.133323,186.1 661.2,186.1 L661.2,188.2 C653.999964,187.933332 649.266678,187.8 647,187.8 C644.733322,187.8 639.733372,187.933332 632,188.2 L632,186.1 C634.066677,186.1 635.516663,185.583339 636.35,184.55 C637.183337,183.516661 637.6,181.633347 637.6,178.9 L637.6,147.2 C637.6,144.133318 637.183337,141.900007 636.35,140.5 C635.516663,139.099993 634.066677,138.4 632,138.4 L632,136.3 C634.133344,136.500001 636.19999,136.6 638.2,136.6 C645.133368,136.6 650.93331,136.133338 655.6,135.2 L655.6,178.9 Z M688.1,136.3 L697.9,136.3 L697.9,138.3 L688.1,138.3 L688.1,179.8 C688.1,181.13334 688.333331,182.066664 688.8,182.6 C689.266669,183.133336 690.033328,183.4 691.1,183.4 C691.900004,183.4 692.799995,183.166669 693.8,182.7 C694.800005,182.233331 695.699996,181.500005 696.5,180.5 L698,181.7 C694.933318,186.966693 690.200032,189.6 683.8,189.6 C679.199977,189.6 675.766678,188.466678 673.5,186.2 C672.099993,184.799993 671.183335,183.066677 670.75,181 C670.316665,178.933323 670.1,176.033352 670.1,172.3 L670.1,138.3 L662.5,138.3 L662.5,136.3 L670.1,136.3 L670.1,124.5 C673.700018,124.5 676.949986,124.150004 679.85,123.45 C682.750015,122.749997 685.499987,121.633341 688.1,120.1 L688.1,136.3 Z" id="OnePressKit" fill="#000000"></path>
    </g>
</svg>